<svg width="85" height="10" viewBox="0 0 85 10" fill="none" xmlns="http://www.w3.org/2000/svg">
<path d="M7.00697 0.626492C6.3071 0.209137 5.50725 0 4.60558 0C3.70391 0 2.88938 0.209137 2.19042 0.626492C1.49055 1.04476 0.951202 1.6364 0.570537 2.40139C0.189873 3.16639 0 4.04696 0 5.04219C0 6.03742 0.189873 6.88314 0.570537 7.63346C0.951202 8.3847 1.48872 8.96716 2.18309 9.37993C2.87837 9.79362 3.68556 10 4.60558 10C5.52559 10 6.3071 9.79362 7.00697 9.37993C7.70593 8.96716 8.24894 8.3847 8.63419 7.63346C9.01945 6.88222 9.21207 6.01816 9.21207 5.04219C9.21207 4.06622 9.01945 3.16639 8.63419 2.40139C8.24894 1.6364 7.70684 1.04476 7.00697 0.626492ZM7.57017 7.11245C7.29316 7.70409 6.89873 8.16181 6.3869 8.4856C5.87507 8.80939 5.2816 8.97175 4.60466 8.97175C3.92772 8.97175 3.32049 8.80939 2.80866 8.4856C2.29683 8.16181 1.90515 7.70409 1.63273 7.11245C1.3603 6.52082 1.22455 5.83104 1.22455 5.04219C1.22455 4.25334 1.3603 3.52779 1.63273 2.9224C1.90515 2.317 2.29683 1.85012 2.80866 1.52082C3.32049 1.19244 3.91855 1.02825 4.60466 1.02825C5.29077 1.02825 5.87415 1.19244 6.3869 1.52082C6.89873 1.8492 7.29316 2.317 7.57017 2.9224C7.84718 3.52779 7.98569 4.235 7.98569 5.04219C7.98569 5.84938 7.84718 6.52082 7.57017 7.11245ZM16.8455 0.0697129H10.9017C10.8732 0.0697129 10.8503 0.0788853 10.831 0.0981478C10.8118 0.11741 10.8026 0.144927 10.8026 0.182534V9.81746C10.8026 9.8459 10.8118 9.87158 10.831 9.89451C10.8503 9.91836 10.8732 9.92937 10.9017 9.92937H11.8877C11.9253 9.92937 11.9529 9.91745 11.9721 9.89451C11.9905 9.87158 12.0005 9.84498 12.0005 9.81746V5.57788H16.5639C16.6015 5.57788 16.6291 5.56595 16.6483 5.54302C16.6667 5.52009 16.6768 5.49349 16.6768 5.46597V4.64869C16.6768 4.61108 16.6676 4.58356 16.6483 4.5643C16.6291 4.54596 16.6015 4.53587 16.5639 4.53587H12.0005V1.09888H16.8455C16.8831 1.09888 16.9107 1.08971 16.9299 1.07044C16.9483 1.0521 16.9584 1.02825 16.9584 0.999819V0.182534C16.9584 0.144927 16.9492 0.11741 16.9299 0.0981478C16.9107 0.0798025 16.8831 0.0697129 16.8455 0.0697129ZM24.5221 0.0697129H18.5782C18.5498 0.0697129 18.5269 0.0788853 18.5076 0.0981478C18.4884 0.11741 18.4792 0.144927 18.4792 0.182534V9.81746C18.4792 9.8459 18.4884 9.87158 18.5076 9.89451C18.526 9.91836 18.5498 9.92937 18.5782 9.92937H19.5643C19.6019 9.92937 19.6294 9.91745 19.6487 9.89451C19.667 9.87158 19.6771 9.84498 19.6771 9.81746V5.57788H24.2405C24.2781 5.57788 24.3056 5.56595 24.3249 5.54302C24.3432 5.52009 24.3533 5.49349 24.3533 5.46597V4.64869C24.3533 4.61108 24.3442 4.58356 24.3249 4.5643C24.3056 4.54596 24.2781 4.53587 24.2405 4.53587H19.6771V1.09888H24.523C24.5606 1.09888 24.5881 1.08971 24.6074 1.07044C24.6258 1.0521 24.6358 1.02825 24.6358 0.999819V0.182534C24.6358 0.144927 24.6267 0.11741 24.6074 0.0981478C24.5881 0.0798025 24.5606 0.0697129 24.523 0.0697129H24.5221ZM43.4177 4.88717V4.83122C43.9341 4.64318 44.3194 4.36617 44.5726 4.00018C44.8257 3.63419 44.9532 3.16914 44.9532 2.60594C44.9532 1.78866 44.6854 1.16217 44.1506 0.725552C43.6158 0.288935 42.8408 0.070631 41.8263 0.070631H38.1921C38.1636 0.070631 38.1407 0.0798034 38.1214 0.099066C38.1022 0.118328 38.093 0.145845 38.093 0.183453V9.81838C38.093 9.84681 38.1022 9.8725 38.1214 9.89543C38.1398 9.91928 38.1636 9.93029 38.1921 9.93029H41.9666C43.1031 9.93029 43.9406 9.71657 44.4808 9.28912C45.0202 8.86168 45.2908 8.19758 45.2908 7.29591C45.2908 6.67584 45.1266 6.15483 44.7982 5.73289C44.4689 5.31003 44.0094 5.02843 43.4177 4.88809V4.88717ZM39.291 1.09796H41.7841C42.4317 1.09796 42.9178 1.23647 43.2416 1.51348C43.5654 1.7905 43.7278 2.20602 43.7278 2.76005C43.7278 3.31407 43.5654 3.71766 43.2416 3.99926C42.9178 4.28086 42.4317 4.42213 41.7841 4.42213H39.291V1.09796ZM43.5727 8.4856C43.2444 8.76261 42.7224 8.90112 42.0097 8.90112H39.291V5.45037H42.0097C42.7234 5.45037 43.2444 5.58888 43.5727 5.8659C43.9011 6.14291 44.0653 6.57678 44.0653 7.16841C44.0653 7.76005 43.9011 8.20859 43.5727 8.4856ZM53.3764 4.55604C53.6113 4.13869 53.7287 3.6241 53.7287 3.01412C53.7287 2.04733 53.4471 1.31444 52.8839 0.816366C52.3207 0.318292 51.4988 0.0697129 50.4192 0.0697129H46.9969C46.9684 0.0697129 46.9455 0.0788853 46.9263 0.0981478C46.907 0.11741 46.8978 0.144927 46.8978 0.182534V9.81746C46.8978 9.8459 46.907 9.87158 46.9263 9.89451C46.9446 9.91836 46.9684 9.92937 46.9969 9.92937H47.9829C48.0582 9.92937 48.0958 9.89176 48.0958 9.81655V6.14016H52.5188V9.81655C52.5188 9.84498 52.5307 9.87066 52.5537 9.8936C52.5766 9.91744 52.6032 9.92845 52.6307 9.92845H53.6168C53.6544 9.92845 53.6828 9.91653 53.7012 9.8936C53.7204 9.87066 53.7296 9.84407 53.7296 9.81655V6.43643C53.7296 6.11722 53.6544 5.88516 53.5039 5.73931C53.3535 5.59347 53.1095 5.52101 52.771 5.52101H52.3629V5.47881C52.8041 5.2816 53.1425 4.97432 53.3774 4.55604H53.3764ZM51.9822 4.61933C51.6346 4.94771 51.1044 5.1119 50.3907 5.1119H48.0948V1.09796H50.3907C51.1044 1.09796 51.6346 1.26215 51.9822 1.59145C52.3298 1.91983 52.5032 2.42249 52.5032 3.09851C52.5032 3.77453 52.3289 4.29095 51.9822 4.61933ZM59.8982 0.154099C59.889 0.125664 59.8725 0.104567 59.8486 0.0908081C59.8248 0.0770492 59.7991 0.0697129 59.7716 0.0697129H58.5177C58.4517 0.0697129 58.4095 0.0981465 58.3911 0.154099L54.8138 9.81655C54.7945 9.84498 54.7927 9.87066 54.8065 9.8936C54.8202 9.91744 54.8505 9.92845 54.8982 9.92845H55.8842C55.9494 9.92845 55.9925 9.90002 56.0108 9.84407L56.8419 7.50596H61.4273L62.251 9.8303C62.2794 9.89635 62.3262 9.92845 62.3922 9.92845H63.392C63.4388 9.92845 63.4691 9.91653 63.4838 9.8936C63.4975 9.87066 63.4957 9.83948 63.4764 9.80187L59.8991 0.153181L59.8982 0.154099ZM57.2124 6.46395L59.1093 1.12548H59.1662L61.0576 6.46395H57.2124ZM72.195 0.0687947H71.2511C71.2227 0.0687947 71.197 0.0779671 71.1741 0.0972296C71.1502 0.116492 71.1392 0.144008 71.1392 0.181616V8.09759H71.0833L66.097 0.153181C66.0686 0.0972283 66.0264 0.0687947 65.9705 0.0687947H64.745C64.7166 0.0687947 64.6936 0.0779671 64.6744 0.0972296C64.6551 0.116492 64.6459 0.144008 64.6459 0.181616V9.81655C64.6459 9.84498 64.6551 9.87066 64.6744 9.8936C64.6927 9.91744 64.7166 9.92845 64.745 9.92845H65.7026C65.7311 9.92845 65.754 9.91653 65.7733 9.8936C65.7916 9.87066 65.8017 9.84407 65.8017 9.81655V1.90057H65.8576L70.8439 9.84498C70.8723 9.90094 70.9191 9.92937 70.9851 9.92937H72.1968C72.2344 9.92937 72.262 9.91745 72.2812 9.89451C72.2996 9.87158 72.3097 9.84498 72.3097 9.81746V0.182534C72.3097 0.144927 72.3005 0.11741 72.2812 0.0981478C72.262 0.0798025 72.2344 0.0697129 72.1968 0.0697129L72.195 0.0687947ZM80.322 0.667764C79.6175 0.268755 78.791 0.0687947 77.8426 0.0687947H74.4194C74.3909 0.0687947 74.368 0.0779671 74.3487 0.0972296C74.3295 0.116492 74.3203 0.144008 74.3203 0.181616V9.81655C74.3203 9.84498 74.3295 9.87066 74.3487 9.8936C74.3671 9.91744 74.3909 9.92845 74.4194 9.92845H77.8426C78.8094 9.92845 79.6404 9.73399 80.3357 9.34416C81.0301 8.95432 81.563 8.39112 81.9345 7.65364C82.3051 6.91616 82.4913 6.04568 82.4913 5.04036C82.4913 4.03504 82.306 3.13154 81.9345 2.38488C81.563 1.63823 81.0255 1.06586 80.322 0.666852V0.667764ZM80.8503 7.12622C80.5733 7.70868 80.1715 8.14988 79.6459 8.44983C79.1203 8.75069 78.4911 8.9002 77.7582 8.9002H75.5182V1.09705H77.7582C78.481 1.09705 79.1075 1.25481 79.6386 1.56852C80.1688 1.88314 80.5733 2.33627 80.8503 2.9279C81.1273 3.51954 81.2658 4.224 81.2658 5.04036C81.2658 5.85672 81.1273 6.54284 80.8503 7.1253V7.12622ZM83.7287 8.54522C83.3425 8.54522 83.0371 8.83783 83.0371 9.23684C83.0371 9.63585 83.3434 9.92845 83.7287 9.92845C84.1139 9.92845 84.4203 9.63585 84.4203 9.23684C84.4203 8.83783 84.1139 8.54522 83.7287 8.54522Z" fill="white"/>
<path d="M31.714 6.46011C31.714 5.83464 32.2287 5.31994 32.8542 5.31994H35.5515C35.6166 5.31994 35.6687 5.26782 35.6687 5.20266V4.59674C35.6687 4.53159 35.6166 4.47947 35.5515 4.47947H32.8542C32.2287 4.47947 31.714 3.96476 31.714 3.3393V0.635463C31.714 0.57031 31.6619 0.518188 31.5967 0.518188H30.9908C30.9256 0.518188 30.8735 0.57031 30.8735 0.635463V3.33278C30.8735 3.95825 30.3588 4.47295 29.7333 4.47295H27.0295C26.9644 4.47295 26.9122 4.52508 26.9122 4.59023V5.19615C26.9122 5.2613 26.9644 5.31342 27.0295 5.31342H29.7268C30.3523 5.31342 30.867 5.82813 30.867 6.45359V9.15091C30.867 9.21607 30.9191 9.26819 30.9843 9.26819H31.5902C31.6553 9.26819 31.7075 9.21607 31.7075 9.15091V6.45359L31.714 6.46011Z" fill="white"/>
</svg>
