<svg width="803" height="879" viewBox="-401.5 -439.5 803 879" xmlns="http://www.w3.org/2000/svg">
  <g transform="scale(0.5) translate(-401.5 -439.5)">
    <path d="M357.398 182.976C208.583 244.082 87.9365 410.642 87.9365 554.97L351.196 446.857L388.003 394.567L388.889 325.139V325.063C388.963 319.743 393.393 313.624 398.857 311.382L415.396 304.58V385.903L448.4 406.955L533.495 372.032C682.31 310.888 802.994 144.329 802.994 0L357.435 182.976H357.398Z" fill="#FE2C7F"/>
    <path d="M445.559 695.991C594.373 634.885 715.02 468.326 715.02 323.997L451.761 432.111L414.954 484.4L414.068 553.829V553.905C413.994 559.225 409.564 565.343 404.1 567.585L387.561 574.387V493.065L354.557 472.012L269.462 506.935C120.684 568.079 0 734.601 0 878.967L445.559 695.991Z" fill="#FF2A21"/>
  </g>
</svg>
