<svg width="803" height="879" viewBox="0 0 803 879" fill="none" xmlns="http://www.w3.org/2000/svg">
<path d="M357.414 182.979C208.602 244.092 87.9297 410.639 87.9297 554.985L351.191 446.884L387.988 394.605L388.877 324.421C388.955 316.941 392.047 309.819 397.419 304.727L408.938 293.825C411.412 291.478 415.393 293.308 415.393 296.729V385.892L448.402 406.939L533.514 372.006C682.326 310.893 802.999 144.346 802.999 0L357.414 182.979Z" fill="white"/>
<path d="M357.398 182.976C208.583 244.082 87.9365 410.642 87.9365 554.97L351.196 446.857L388.003 394.567L388.889 325.139V325.063C388.963 319.743 393.393 313.624 398.857 311.382L415.396 304.58V385.903L448.4 406.955L533.495 372.032C682.31 310.888 802.994 144.329 802.994 0L357.435 182.976H357.398Z" fill="white"/>
<path d="M445.559 695.991C594.373 634.885 715.02 468.326 715.02 323.997L451.761 432.111L414.954 484.4L414.068 553.829V553.905C413.994 559.225 409.564 565.343 404.1 567.585L387.561 574.387V493.065L354.557 472.012L269.462 506.935C120.684 568.079 0 734.601 0 878.967L445.559 695.991Z" fill="white"/>
</svg>
