<svg width="382" height="402" viewBox="0 0 382 402" fill="none" xmlns="http://www.w3.org/2000/svg">
  <mask id="a" maskUnits="userSpaceOnUse" x="0" y="0" width="382" height="402" fill="#000">
    <path fill="#fff" d="M0 0h382v402H0z"/>
    <path fill-rule="evenodd" clip-rule="evenodd" d="M41 1h299.914c22.091 0 40 17.909 40 40v202.054c.057.949.086 1.902.086 2.858v39.713a47.475 47.475 0 0 1-14.69 34.335l-71.115 67.902A47.472 47.472 0 0 1 262.411 401H41c-22.091 0-40-17.909-40-40V41C1 18.909 18.91 1 41 1Z"/>
  </mask>
  <path d="m380.914 243.054-.998.06-.002-.03v-.03h1Zm.086 2.858h-1 1Zm0 39.713h1-1Zm-14.69 34.335-.69-.723.69.723Zm-71.115 67.902-.69-.723.69.723ZM262.411 401v-1 1ZM1.001 189.732h1v.004l-1-.004ZM340.914 2H41.001V0h299.913v2Zm39 39c0-21.54-17.461-39-39-39V0c22.644 0 41 18.356 41 41h-2Zm0 202.054V41h2v202.054h-2Zm.086 2.858c0-.936-.028-1.869-.084-2.798l1.996-.12c.059.969.088 1.942.088 2.918h-2Zm0 39.713v-39.713h2v39.713h-2Zm-14.38 33.612A46.477 46.477 0 0 0 380 285.625h2a48.481 48.481 0 0 1-14.999 35.059l-1.381-1.447Zm-71.115 67.902 71.115-67.902 1.381 1.447-71.115 67.901-1.381-1.446ZM262.411 400a46.475 46.475 0 0 0 32.094-12.861l1.381 1.446A48.472 48.472 0 0 1 262.411 402v-2Zm-34.031 0h34.031v2H228.38v-2Zm-.077 0h.077v2h-.077v-2Zm0 2H41v-2h187.303v2ZM41 402c-22.643 0-41-18.356-41-41h2c0 21.539 17.461 39 39 39v2ZM0 361V189.905h2V361H0Zm0-171.095v-.177l2 .008v.169H0ZM2 41v148.732H0V41h2ZM41 2C19.463 2 2 19.46 2 41H0C0 18.356 18.358 0 41 0v2Z" fill="#fff" fill-opacity=".1" mask="url(#a)"/>
</svg>
