<svg width="174" height="150" viewBox="0 0 174 150" fill="none" xmlns="http://www.w3.org/2000/svg">
<g clip-path="url(#clip0_1366_99049)">
<path opacity="0.4" d="M3 3L174 75L303 39L588 147L702.5 75L989 111L1092.5 39L1230 74.5L1442 38.5L1758 74L1991 3L2170.5 111L2286 74L2627.5 111L2814 74L2890.5 112L3228 39L3342 75L3444.5 3L3815.5 111L3877 75L4214 3L4406 74.5L4783 3L4935 74.5L5196.5 3L5299.5 147L5464 75L5710 111L5993.5 75L6104 147L6522 75L6617 147L6854 3L7051 75" stroke="white" stroke-dasharray="0.5 6"/>
<path d="M4.65836 2.31672C5.27476 3.54951 4.37831 5 3 5C1.62169 5 0.725243 3.54951 1.34164 2.31672C2.02492 0.950156 3.97508 0.950155 4.65836 2.31672Z" stroke="#575757"/>
<circle cx="3" cy="3" r="3" fill="#575757"/>
</g>
<defs>
<clipPath id="clip0_1366_99049">
<rect width="174" height="150" fill="white"/>
</clipPath>
</defs>
</svg>
