<svg width="529" height="150" viewBox="0 0 529 150" fill="none" xmlns="http://www.w3.org/2000/svg">
  <g clip-path="url(#a)">
    <path opacity=".4" d="m-701 3 171 72 129-36 285 108L-1.5 75 285 111l103.5-72L526 74.5l212-36L1054 74l233-71 179.5 108L1582 74l341.5 37L2110 74l76.5 38L2524 39l114 36 102.5-72 371 108 61.5-36 337-72 192 71.5L4079 3l152 71.5L4492.5 3l103 144L4760 75l246 36 283.5-36 110.5 72 418-72 95 72L6150 3l197 72" stroke="#fff" stroke-dasharray=".5 6"/>
    <path d="M286.658 110.317A1.854 1.854 0 0 1 285 113a1.854 1.854 0 0 1-1.658-2.683c.683-1.367 2.633-1.367 3.316 0Z" stroke="#575757"/>
    <circle cx="285" cy="111" r="3" fill="#575757"/>
    <path d="M390.658 38.317A1.854 1.854 0 0 1 389 41a1.854 1.854 0 0 1-1.658-2.683c.683-1.367 2.633-1.367 3.316 0Z" stroke="#575757"/>
    <circle cx="389" cy="39" r="3" fill="#575757"/>
  </g>
  <defs>
    <clipPath id="a">
      <path fill="#fff" d="M0 0h529v150H0z"/>
    </clipPath>
  </defs>
</svg>
