<svg width="529" height="150" viewBox="0 0 529 150" fill="none" xmlns="http://www.w3.org/2000/svg">
  <g clip-path="url(#a)">
    <path opacity=".4" d="m-1227 3 171 72 129-36 285 108 114.5-72 286.5 36 103.5-72L0 74.5l212-36L528 74 761 3l179.5 108L1056 74l341.5 37L1584 74l76.5 38L1998 39l114 36 102.5-72 371 108 61.5-36 337-72 192 71.5L3553 3l152 71.5L3966.5 3l103 144L4234 75l246 36 283.5-36 110.5 72 418-72 95 72L5624 3l197 72" stroke="#fff" stroke-dasharray=".5 6"/>
    <path d="M213.658 37.317A1.854 1.854 0 0 1 212 40a1.854 1.854 0 0 1-1.658-2.683c.683-1.367 2.633-1.367 3.316 0Z" stroke="#575757"/>
    <circle cx="212" cy="38" r="3" fill="#575757"/>
  </g>
  <defs>
    <clipPath id="a">
      <path fill="#fff" d="M0 0h529v150H0z"/>
    </clipPath>
  </defs>
</svg>
