<svg width="779" height="446" viewBox="0 0 779 446" fill="none" xmlns="http://www.w3.org/2000/svg">
<path d="M70.4432 0C61.7219 0 53.4323 3.7952 47.7336 10.3971L7.29041 57.2498C2.58746 62.698 0 69.6554 0 76.8527V134.253C0 134.39 0.000915527 134.527 0.00280762 134.664V425.28C0.00280762 436.326 8.95709 445.28 20.0028 445.28H170.003C170.108 445.28 170.214 445.279 170.319 445.278H702.739C705.229 445.278 707.613 444.823 709.812 443.991H713.447C719.143 443.991 724.569 441.562 728.363 437.314L773.831 386.407C777.121 382.723 778.932 377.951 778.914 373.011L778.459 249.025C778.442 244.293 776.747 239.72 773.676 236.119L728.385 183.021C726.781 181.14 724.863 179.596 722.742 178.44V165C722.742 164.889 722.741 164.777 722.739 164.666V20C722.739 8.95433 713.785 0 702.739 0H92.7614C91.3835 0 90.0381 0.139354 88.7385 0.404738C87.1315 0.138506 85.4813 0 83.7988 0H70.4432Z" fill="white"/>
</svg>
