<svg width="781" height="450" viewBox="0 0 781 450" fill="none" xmlns="http://www.w3.org/2000/svg">
  <path fill-rule="evenodd" clip-rule="evenodd" d="M677.556 0a20 20 0 0 1 15.269 7.082l82.625 97.663a19.998 19.998 0 0 1 4.731 12.845l.794 218.457a19.998 19.998 0 0 1-5.029 13.335l-83.14 93.849a20.002 20.002 0 0 1-14.97 6.737H94.074c-1.378 0-2.723-.139-4.023-.405-1.666.287-3.38.437-5.127.437H71.249c-8.58 0-16.75-3.674-22.443-10.092L8.532 394.506a30 30 0 0 1-7.557-19.908v-58.46c0-.138.001-.277.003-.415V20c0-11.046 8.954-20 20-20H677.556Z" fill="#fff"/>
</svg>
