<svg width="780" height="450" viewBox="0 0 780 450" fill="none" xmlns="http://www.w3.org/2000/svg">
  <path fill-rule="evenodd" clip-rule="evenodd" d="M70.604.003a30 30 0 0 0-22.798 10.5L7.202 57.975A30 30 0 0 0 0 77.475v58.403c0 .136 0 .271.003.407v293.718c0 11.046 8.954 20 20 20h150.265c.111 0 .223-.001.334-.003h533.145c2.503 0 4.899-.46 7.108-1.3h3.544a20 20 0 0 0 14.977-6.745l45.601-51.526A19.997 19.997 0 0 0 780 377.102l-.456-125.563a20 20 0 0 0-4.725-12.838l-45.423-53.743a20 20 0 0 0-5.646-4.62V166.54l-.003-.336V20.003c0-11.046-8.955-20-20-20H92.863c-1.37 0-2.706.137-3.998.4a30.208 30.208 0 0 0-4.908-.4H70.604Z" fill="#fff"/>
</svg>
